<?xml version="1.0" standalone="no"?>
<!DOCTYPE svg PUBLIC "-//W3C//DTD SVG 20010904//EN"
 "http://www.w3.org/TR/2001/REC-SVG-20010904/DTD/svg10.dtd">
<svg version="1.0" xmlns="http://www.w3.org/2000/svg"
 width="688.000000pt" height="688.000000pt" viewBox="0 0 688.000000 688.000000"
 preserveAspectRatio="xMidYMid meet">
<metadata>
Created by potrace 1.11, written by Peter Selinger 2001-2013
</metadata>
<g transform="translate(0.000000,688.000000) scale(0.100000,-0.100000)"
fill="#000000" stroke="none">
<path d="M3398 6856 c-18 -12 -47 -29 -63 -38 -30 -15 -253 -144 -310 -179
-16 -10 -46 -26 -65 -36 -19 -9 -57 -31 -85 -48 -27 -18 -57 -35 -65 -38 -8
-4 -37 -21 -65 -38 -27 -16 -58 -33 -67 -36 -10 -3 -18 -9 -18 -14 0 -5 -4 -9
-9 -9 -5 0 -55 -27 -111 -60 -56 -33 -103 -60 -106 -60 -2 0 -33 -18 -69 -40
-36 -22 -69 -40 -74 -40 -5 0 -11 -5 -13 -11 -2 -5 -11 -11 -20 -13 -9 -1 -25
-9 -35 -17 -10 -8 -31 -21 -48 -29 -16 -8 -32 -17 -35 -20 -3 -3 -16 -11 -29
-18 -22 -13 -37 -21 -124 -71 -18 -10 -93 -53 -165 -95 -72 -42 -136 -76 -142
-76 -5 0 -10 -4 -10 -8 0 -4 -24 -20 -52 -35 -29 -16 -71 -39 -93 -53 -22 -13
-49 -29 -60 -34 -11 -6 -27 -14 -35 -20 -25 -16 -152 -90 -154 -90 -4 0 -400
-229 -411 -237 -9 -7 -36 -22 -120 -67 -11 -6 -22 -13 -25 -16 -3 -3 -18 -12
-35 -21 -16 -9 -74 -42 -128 -73 l-97 -57 2 -1721 3 -1721 120 -69 c66 -39
143 -82 170 -98 28 -15 85 -49 128 -74 43 -25 82 -46 87 -46 6 0 10 -4 10 -10
0 -5 4 -10 10 -10 5 0 44 -20 86 -45 41 -25 78 -45 80 -45 2 0 23 -12 47 -27
23 -15 56 -35 72 -44 17 -9 50 -28 75 -43 25 -15 53 -29 63 -33 9 -3 17 -9 17
-14 0 -5 4 -9 9 -9 5 0 87 -45 181 -100 95 -55 176 -100 181 -100 5 0 9 -4 9
-10 0 -5 4 -10 10 -10 13 0 294 -162 298 -172 2 -4 9 -8 14 -8 6 0 52 -24 102
-54 50 -30 111 -65 136 -79 68 -38 463 -266 480 -277 8 -6 22 -13 30 -17 8 -3
39 -21 68 -40 29 -18 54 -33 57 -33 2 0 65 -36 141 -80 75 -44 140 -80 144
-80 5 0 10 -3 12 -7 2 -5 19 -16 38 -26 19 -9 50 -26 68 -37 36 -22 24 -25
134 39 18 10 83 47 143 82 61 34 113 68 117 73 4 6 8 8 8 3 0 -4 17 4 38 17
68 44 301 176 311 176 5 0 11 3 13 8 2 4 59 39 128 79 69 39 139 79 157 90
108 63 126 73 134 73 5 0 9 4 9 9 0 5 8 11 18 14 18 6 89 46 183 103 31 19 61
34 67 34 6 0 12 3 14 8 4 10 305 182 318 182 6 0 10 3 10 8 0 4 30 23 68 42
37 19 69 37 72 40 5 6 52 34 120 72 19 11 124 72 233 135 110 63 215 124 235
135 21 12 51 29 67 39 17 11 37 22 45 25 8 4 23 14 33 22 9 8 17 12 17 7 0 -4
7 -2 15 5 9 7 80 50 158 95 l142 82 0 1723 0 1723 -141 81 c-78 45 -149 88
-158 95 -9 7 -16 10 -16 6 0 -4 -7 -2 -15 5 -22 18 -167 100 -177 100 -4 0 -8
5 -8 10 0 6 -4 10 -9 10 -5 0 -49 23 -98 51 -48 29 -108 63 -133 77 -25 13
-52 30 -60 37 -8 6 -22 14 -30 17 -8 3 -89 49 -179 102 -90 53 -168 96 -172
96 -5 0 -9 5 -9 11 0 5 -4 7 -10 4 -5 -3 -10 -2 -10 2 0 5 -12 14 -27 20 -37
15 -87 46 -91 56 -2 4 -8 7 -13 7 -9 0 -289 159 -299 170 -3 3 -21 13 -40 23
-19 9 -48 25 -65 35 -16 10 -50 30 -75 44 -25 14 -69 39 -98 57 -29 17 -57 31
-62 31 -4 0 -10 4 -12 8 -3 8 -44 32 -157 93 -25 13 -50 27 -55 32 -17 12
-170 102 -179 104 -4 2 -18 10 -32 18 -14 8 -36 22 -50 30 -14 8 -28 16 -32
16 -5 1 -20 10 -35 20 -14 10 -31 19 -37 19 -6 0 -11 4 -11 9 0 5 -8 11 -17
14 -10 4 -37 17 -59 31 -117 69 -281 163 -296 169 -10 3 -31 -3 -50 -17z"/>
</g>
</svg>
